<?xml version="1.0" encoding="utf-8"?>
<!-- Generator: Adobe Illustrator 27.2.0, SVG Export Plug-In . SVG Version: 6.00 Build 0)  -->
<svg version="1.1" xmlns="http://www.w3.org/2000/svg" xmlns:xlink="http://www.w3.org/1999/xlink" x="0px" y="0px"
	 viewBox="0 0 392.9 297.7" style="enable-background:new 0 0 392.9 297.7;" xml:space="preserve">
<style type="text/css">
	.st0{display:none;}
	.st1{fill:#FFFFFF;stroke:#B0B0B0;stroke-miterlimit:10;}
</style>
<g id="Contenido">
	<g>
		<path d="M25.9,289.1c-3,0-5.7-0.8-8.2-2.3c-2.5-1.5-4.5-3.6-6-6.1c-1.5-2.6-2.2-5.4-2.2-8.4v-3.8c0-0.3,0.1-0.5,0.4-0.5h9.4
			c0.2,0,0.3,0.2,0.3,0.5v3.8c0,1.8,0.6,3.4,1.8,4.7c1.2,1.3,2.7,2,4.4,2c1.7,0,3.2-0.7,4.5-2c1.2-1.4,1.8-2.9,1.8-4.7
			c0-2-1.3-3.8-4-5.4c-0.4-0.3-1-0.6-1.7-1c-0.7-0.4-1.5-0.9-2.5-1.4c-1-0.5-1.9-1-2.8-1.5c-0.9-0.5-1.8-1-2.6-1.5
			c-3.1-1.8-5.3-4.1-6.8-6.8c-1.5-2.7-2.2-5.8-2.2-9.1c0-3.1,0.8-5.9,2.3-8.4c1.5-2.5,3.5-4.5,6-5.9c2.5-1.5,5.2-2.2,8-2.2
			c3,0,5.7,0.7,8.2,2.2c2.5,1.5,4.5,3.5,6,6c1.5,2.5,2.2,5.3,2.2,8.4v6.9c0,0.2-0.1,0.3-0.3,0.3h-9.4c-0.2,0-0.3-0.1-0.3-0.3
			l-0.1-6.9c0-2-0.6-3.6-1.8-4.8c-1.2-1.2-2.7-1.8-4.4-1.8c-1.7,0-3.2,0.7-4.4,2c-1.2,1.3-1.8,2.9-1.8,4.7c0,1.8,0.4,3.4,1.2,4.6
			c0.8,1.2,2.2,2.4,4.3,3.5c0.2,0.1,0.7,0.4,1.5,0.8c0.8,0.4,1.7,0.9,2.6,1.5c1,0.5,1.8,1,2.6,1.4c0.8,0.4,1.3,0.7,1.4,0.8
			c2.8,1.6,5,3.5,6.6,5.7c1.6,2.3,2.4,5,2.4,8.4c0,3.2-0.7,6.1-2.2,8.6c-1.5,2.5-3.5,4.5-6,6S28.9,289.1,25.9,289.1z"/>
		<path d="M64.4,288.3h-9.5c-0.2,0-0.4-0.1-0.4-0.4v-47.8H43.6c-0.3,0-0.4-0.1-0.4-0.4l0.1-9.4c0-0.2,0.1-0.3,0.3-0.3h31.8
			c0.3,0,0.5,0.1,0.5,0.3v9.4c0,0.3-0.1,0.4-0.3,0.4h-11l0.1,47.8C64.7,288.2,64.6,288.3,64.4,288.3z"/>
		<path d="M89.8,288.3h-9.5c-0.2,0-0.3-0.1-0.3-0.4l0.2-57.6c0-0.2,0.1-0.3,0.3-0.3h16.9c3,0,5.8,0.7,8.4,2.2
			c2.5,1.5,4.6,3.5,6.1,5.9s2.3,5.3,2.3,8.4c0,2-0.3,3.9-0.9,5.6c-0.6,1.7-1.4,3.1-2.2,4.2c-0.8,1.1-1.6,2-2.3,2.5
			c3,3.4,4.5,7.3,4.5,11.8l0.1,17.2c0,0.3-0.1,0.4-0.4,0.4h-9.5c-0.2,0-0.3-0.1-0.3-0.2v-17.4c0-2-0.7-3.8-2.1-5.2
			c-1.4-1.5-3.2-2.2-5.2-2.2h-5.5l-0.1,24.6C90.1,288.2,90,288.3,89.8,288.3z M97.4,240h-7.2v13.2h7.2c1.7,0,3.3-0.6,4.6-1.9
			c1.4-1.3,2-2.9,2-4.7c0-1.8-0.7-3.3-2-4.6C100.8,240.7,99.2,240,97.4,240z"/>
		<path d="M147.8,288.3h-27.1c-0.2,0-0.3-0.1-0.3-0.4l0.1-57.6c0-0.2,0.1-0.3,0.3-0.3h26.9c0.2,0,0.3,0.1,0.3,0.4v9.4
			c0,0.2-0.1,0.3-0.3,0.3h-17.2v13.1h17.2c0.2,0,0.3,0.1,0.3,0.3l0.1,9.5c0,0.2-0.1,0.3-0.3,0.3h-17.3V278h17.3
			c0.2,0,0.3,0.1,0.3,0.4v9.6C148.1,288.2,148,288.3,147.8,288.3z"/>
		<path d="M183,288.3h-27.1c-0.2,0-0.3-0.1-0.3-0.4l0.1-57.6c0-0.2,0.1-0.3,0.3-0.3h26.9c0.2,0,0.3,0.1,0.3,0.4v9.4
			c0,0.2-0.1,0.3-0.3,0.3h-17.2v13.1h17.2c0.2,0,0.3,0.1,0.3,0.3l0.1,9.5c0,0.2-0.1,0.3-0.3,0.3h-17.3V278H183
			c0.2,0,0.3,0.1,0.3,0.4v9.6C183.4,288.2,183.2,288.3,183,288.3z"/>
		<path d="M208.7,288.3h-9.5c-0.2,0-0.4-0.1-0.4-0.4v-47.8H188c-0.3,0-0.4-0.1-0.4-0.4l0.1-9.4c0-0.2,0.1-0.3,0.3-0.3h31.8
			c0.3,0,0.5,0.1,0.5,0.3v9.4c0,0.3-0.1,0.4-0.3,0.4h-11l0.1,47.8C209,288.2,208.9,288.3,208.7,288.3z"/>
		<path d="M234.2,288.3h-9.4c-0.3,0-0.4-0.1-0.4-0.4l0.2-57.6c0-0.2,0.1-0.3,0.3-0.3h26.9c0.3,0,0.4,0.1,0.4,0.3v9.5
			c0,0.2-0.1,0.3-0.3,0.3h-17.2v13h17.2c0.2,0,0.3,0.1,0.3,0.4l0.1,9.5c0,0.2-0.1,0.3-0.4,0.3h-17.2v24.6
			C234.6,288.2,234.4,288.3,234.2,288.3z"/>
		<path d="M287,288.3h-27.1c-0.2,0-0.3-0.1-0.3-0.4l0.1-57.6c0-0.2,0.1-0.3,0.3-0.3H287c0.2,0,0.3,0.1,0.3,0.4v9.4
			c0,0.2-0.1,0.3-0.3,0.3h-17.2v13.1H287c0.2,0,0.3,0.1,0.3,0.3l0.1,9.5c0,0.2-0.1,0.3-0.3,0.3h-17.3V278H287c0.2,0,0.3,0.1,0.3,0.4
			v9.6C287.4,288.2,287.3,288.3,287,288.3z"/>
		<path d="M322.3,288.3h-27.1c-0.2,0-0.3-0.1-0.3-0.4l0.1-57.6c0-0.2,0.1-0.3,0.3-0.3h26.9c0.2,0,0.3,0.1,0.3,0.4v9.4
			c0,0.2-0.1,0.3-0.3,0.3H305v13.1h17.2c0.2,0,0.3,0.1,0.3,0.3l0.1,9.5c0,0.2-0.1,0.3-0.3,0.3H305V278h17.3c0.2,0,0.3,0.1,0.3,0.4
			v9.6C322.6,288.2,322.5,288.3,322.3,288.3z"/>
		<path d="M345.5,288.2l-15,0.1c-0.3,0-0.4-0.1-0.4-0.4l0.2-57.6c0-0.2,0.1-0.3,0.3-0.3l15.7-0.1c3.1-0.1,5.9,0.6,8.4,2.1
			c2.5,1.5,4.6,3.5,6.1,6.1s2.3,5.4,2.3,8.5v24.1c0,3.2-0.8,6.2-2.3,8.8c-1.6,2.6-3.7,4.8-6.3,6.3
			C351.7,287.4,348.8,288.2,345.5,288.2z M346.2,239.9l-5.9,0.1l-0.1,38h5.2c2.1,0,3.8-0.7,5.2-2.2c1.4-1.4,2.1-3.2,2.1-5.2v-24.2
			c0-1.8-0.7-3.3-2-4.6C349.6,240.5,348,239.9,346.2,239.9z"/>
		<path d="M387.6,239.6c0,4.9-3.9,8.8-8.9,8.8c-5,0-9-3.9-9-8.8c0-4.8,4-8.7,9-8.7C383.7,230.9,387.6,234.8,387.6,239.6z
			 M371.9,239.6c0,3.9,2.9,7,6.8,7c3.8,0,6.6-3.1,6.6-6.9c0-3.9-2.8-7-6.7-7C374.8,232.7,371.9,235.8,371.9,239.6z M377.3,244.2h-2
			v-8.7c0.8-0.2,1.9-0.3,3.3-0.3c1.6,0,2.4,0.3,3,0.6c0.5,0.4,0.8,1.1,0.8,1.9c0,1-0.7,1.7-1.8,2v0.1c0.8,0.3,1.3,1,1.6,2.1
			c0.3,1.3,0.4,1.9,0.6,2.2h-2.2c-0.3-0.3-0.4-1.1-0.7-2.1c-0.2-1-0.7-1.4-1.8-1.4h-1V244.2z M377.3,239.2h1c1.1,0,2-0.4,2-1.3
			c0-0.8-0.6-1.3-1.9-1.3c-0.5,0-0.9,0.1-1.1,0.1V239.2z"/>
	</g>
	<g id="Isotipo">
		<g id="XMLID_00000170267654015197816840000016736179760879735473_">
			<g>
				<path d="M160.1,150.9l36,38.9l36-38.9c-30.2-20.8-38.4-61.8-18.7-92.6c-11.2-3.8-23.4-3.8-34.7,0c19.7,30.8,11.6,71.6-18.4,92.4
					L160.1,150.9z M279.7,13.4c1.4,0.3,2.3,1.6,2.1,3c-1.2,6.2-5.5,11.4-11.5,13.5c-13.7,4.9-26,13-36,23.6
					c31,21.1,39,63.4,17.9,94.4c2,1.9,3.7,4.1,5,6.5c7.5,12.6,8.2,28.2,2,41.5c-3.5,7.5-11.8,11.7-20,9.9c-0.6-0.1-1.1-0.4-1.5-0.9
					c-0.9-1.1-0.7-2.8,0.4-3.7c12.2-9.8,15.2-27.2,7-40.5c-0.5-0.8-1.1-1.6-1.7-2.3L196,209.8l-47.4-51.2c-0.6,0.7-1.2,1.5-1.7,2.3
					c-8,13-5.4,29.9,6.2,39.9c0.5,0.4,0.8,0.9,0.9,1.5c0.3,1.4-0.7,2.8-2.1,3c-8.2,1.5-16.3-2.9-19.6-10.5
					c-5.7-13.4-4.6-28.7,3.1-41c1.3-2.1,2.8-4,4.5-5.7c-21.1-31-13.1-73.3,17.9-94.4c-10-10.6-22.3-18.7-36-23.6
					c-6-2.1-10.3-7.3-11.5-13.5c-0.1-0.3-0.1-0.7,0-1c0.3-1.4,1.7-2.3,3.1-2c22,4.8,41.8,16.6,56.7,33.5c16.6-6.9,35.3-6.9,51.9,0
					c14.8-16.9,34.7-28.6,56.7-33.5C279,13.3,279.4,13.3,279.7,13.4z M240.9,140.4c16.9-24.8,10.6-58.6-14.2-75.5
					c-0.3-0.2-0.6-0.4-1-0.6c-16.9,24.8-10.6,58.6,14.2,75.5C240.3,140,240.6,140.2,240.9,140.4z M151.2,140.4
					c25.1-16.4,32.2-50.1,15.8-75.2c-0.2-0.3-0.4-0.6-0.6-1c-25.1,16.4-32.2,50.1-15.8,75.2C150.7,139.7,150.9,140.1,151.2,140.4z"
					/>
			</g>
			<g>
			</g>
		</g>
	</g>
</g>
</svg>
