<?xml version="1.0" encoding="utf-8"?>
<svg version="1.1" id="Logo" xmlns="http://www.w3.org/2000/svg" xmlns:xlink="http://www.w3.org/1999/xlink" x="0px" y="0px"
	 viewBox="0 0 595.3 682.6" style="enable-background:new 0 0 595.3 682.6;" xml:space="preserve">
		<path d="M171.9,477.8L297,613l125.2-135.2c-104.9-72.2-133.6-214.6-64.9-321.9c-39.1-13.2-81.4-13.2-120.5,0
			c68.4,106.9,40.2,248.8-64,321.3L171.9,477.8z M509.7,490.6c25.9,44,28.5,97.9,6.9,144.3c-12.2,26.2-41.1,40.5-69.4,34.3
			c-2-0.4-3.8-1.6-5.1-3.2c-3.1-3.9-2.5-9.6,1.4-12.7c42.5-34.1,52.9-94.5,24.3-140.8c-1.8-2.8-3.7-5.5-6-8L297,682.6l-164.8-178
			c-2.2,2.5-4.2,5.1-6,8c-28,45.2-18.8,104,21.5,138.5c1.6,1.4,2.6,3.2,3,5.2c0.9,4.9-2.4,9.6-7.3,10.5c-28.5,5.2-56.8-10-68.2-36.6
			c-19.9-46.4-15.9-99.7,10.7-142.6c4.4-7.2,9.7-13.8,15.8-19.7c-73.5-107.8-45.7-254.7,62.1-328.2c-34.6-36.8-77.4-64.9-125-82
			C18.2,50.3,3,32.4-1,10.7C-1.3,9.5-1.2,8.3-1,7.1c1.1-4.9,5.9-8,10.8-6.9c76.4,16.9,145.4,57.6,197,116.4
			c57.8-23.9,122.6-23.9,180.4,0c51.6-58.7,120.6-99.5,197-116.4c1.2-0.3,2.4-0.3,3.6,0c4.9,0.9,8.2,5.6,7.2,10.5
			c-4,21.7-19.3,39.6-40,47.1c-47.5,17.1-90.4,45.2-125,82c107.8,73.5,135.6,220.4,62.1,328.2C499,474.7,504.9,482.3,509.7,490.6z
			 M452.9,441.5c58.9-86.2,36.7-203.7-49.4-262.5c-1.1-0.8-2.2-1.5-3.4-2.2c-58.8,86.1-36.7,203.7,49.4,262.5
			C450.7,440,451.8,440.7,452.9,441.5z M141,441.5c87.4-57,112-174,55-261.4c-0.7-1.1-1.5-2.3-2.2-3.4c-87.4,57-112,174-55,261.4
			C139.5,439.2,140.2,440.3,141,441.5z"/>
</svg>
