<?xml version="1.0" encoding="utf-8"?>
<!-- Generator: Adobe Illustrator 27.2.0, SVG Export Plug-In . SVG Version: 6.00 Build 0)  -->
<svg version="1.1" id="Capa_1" xmlns="http://www.w3.org/2000/svg" xmlns:xlink="http://www.w3.org/1999/xlink" x="0px" y="0px"
	 viewBox="0 0 378.1 60" style="enable-background:new 0 0 378.1 60;" xml:space="preserve">
<g>
	<path d="M16.4,60c-3,0-5.7-0.8-8.2-2.3c-2.5-1.5-4.5-3.6-6-6.1C0.7,49,0,46.2,0,43.2v-3.8c0-0.3,0.1-0.5,0.4-0.5h9.4
		c0.2,0,0.3,0.2,0.3,0.5v3.8c0,1.8,0.6,3.4,1.8,4.7c1.2,1.3,2.7,2,4.4,2c1.7,0,3.2-0.7,4.5-2c1.2-1.4,1.8-2.9,1.8-4.7
		c0-2-1.3-3.8-4-5.4c-0.4-0.3-1-0.6-1.7-1c-0.7-0.4-1.5-0.9-2.5-1.4c-1-0.5-1.9-1-2.8-1.5c-0.9-0.5-1.8-1-2.6-1.5
		c-3.1-1.8-5.3-4.1-6.8-6.8c-1.5-2.7-2.2-5.8-2.2-9.1c0-3.1,0.8-5.9,2.3-8.4c1.5-2.5,3.5-4.5,6-5.9c2.5-1.5,5.2-2.2,8-2.2
		c3,0,5.7,0.7,8.2,2.2c2.5,1.5,4.5,3.5,6,6c1.5,2.5,2.2,5.3,2.2,8.4v6.9c0,0.2-0.1,0.3-0.3,0.3H23c-0.2,0-0.3-0.1-0.3-0.3l-0.1-6.9
		c0-2-0.6-3.6-1.8-4.8c-1.2-1.2-2.7-1.8-4.4-1.8c-1.7,0-3.2,0.7-4.4,2c-1.2,1.3-1.8,2.9-1.8,4.7c0,1.8,0.4,3.4,1.2,4.6
		c0.8,1.2,2.2,2.4,4.3,3.5c0.2,0.1,0.7,0.4,1.5,0.8c0.8,0.4,1.7,0.9,2.6,1.5c1,0.5,1.8,1,2.6,1.4s1.3,0.7,1.4,0.8
		c2.8,1.6,5,3.5,6.6,5.7c1.6,2.3,2.4,5,2.4,8.4c0,3.2-0.7,6.1-2.2,8.6c-1.5,2.5-3.5,4.5-6,6S19.4,60,16.4,60z"/>
	<path d="M54.9,59.2h-9.5c-0.2,0-0.4-0.1-0.4-0.4V11H34.2c-0.3,0-0.4-0.1-0.4-0.4l0.1-9.4c0-0.2,0.1-0.3,0.3-0.3H66
		c0.3,0,0.5,0.1,0.5,0.3v9.4c0,0.3-0.1,0.4-0.3,0.4h-11l0.1,47.8C55.2,59.1,55.1,59.2,54.9,59.2z"/>
	<path d="M80.4,59.2h-9.5c-0.2,0-0.3-0.1-0.3-0.4l0.2-57.6c0-0.2,0.1-0.3,0.3-0.3H88c3,0,5.8,0.7,8.4,2.2c2.5,1.5,4.6,3.5,6.1,5.9
		s2.3,5.3,2.3,8.4c0,2-0.3,3.9-0.9,5.6c-0.6,1.7-1.4,3.1-2.2,4.2c-0.8,1.1-1.6,2-2.3,2.5c3,3.4,4.5,7.3,4.5,11.8l0.1,17.2
		c0,0.3-0.1,0.4-0.4,0.4H94c-0.2,0-0.3-0.1-0.3-0.2V41.6c0-2-0.7-3.8-2.1-5.2c-1.4-1.5-3.2-2.2-5.2-2.2h-5.5l-0.1,24.6
		C80.7,59.1,80.6,59.2,80.4,59.2z M88,10.9h-7.2v13.2H88c1.7,0,3.3-0.6,4.6-1.9c1.4-1.3,2-2.9,2-4.7c0-1.8-0.7-3.3-2-4.6
		C91.3,11.5,89.8,10.9,88,10.9z"/>
	<path d="M138.4,59.2h-27.1c-0.2,0-0.3-0.1-0.3-0.4L111,1.2c0-0.2,0.1-0.3,0.3-0.3h26.9c0.2,0,0.3,0.1,0.3,0.4v9.4
		c0,0.2-0.1,0.3-0.3,0.3h-17.2v13.1h17.2c0.2,0,0.3,0.1,0.3,0.3l0.1,9.5c0,0.2-0.1,0.3-0.3,0.3h-17.3v14.7h17.3
		c0.2,0,0.3,0.1,0.3,0.4v9.6C138.7,59.1,138.6,59.2,138.4,59.2z"/>
	<path d="M173.6,59.2h-27.1c-0.2,0-0.3-0.1-0.3-0.4l0.1-57.6c0-0.2,0.1-0.3,0.3-0.3h26.9c0.2,0,0.3,0.1,0.3,0.4v9.4
		c0,0.2-0.1,0.3-0.3,0.3h-17.2v13.1h17.2c0.2,0,0.3,0.1,0.3,0.3l0.1,9.5c0,0.2-0.1,0.3-0.3,0.3h-17.3v14.7h17.3
		c0.2,0,0.3,0.1,0.3,0.4v9.6C173.9,59.1,173.8,59.2,173.6,59.2z"/>
	<path d="M199.2,59.2h-9.5c-0.2,0-0.4-0.1-0.4-0.4V11h-10.9c-0.3,0-0.4-0.1-0.4-0.4l0.1-9.4c0-0.2,0.1-0.3,0.3-0.3h31.8
		c0.3,0,0.5,0.1,0.5,0.3v9.4c0,0.3-0.1,0.4-0.3,0.4h-11l0.1,47.8C199.6,59.1,199.5,59.2,199.2,59.2z"/>
	<path d="M224.7,59.2h-9.4c-0.3,0-0.4-0.1-0.4-0.4L215,1.2c0-0.2,0.1-0.3,0.3-0.3h26.9c0.3,0,0.4,0.1,0.4,0.3v9.5
		c0,0.2-0.1,0.3-0.3,0.3h-17.2v13h17.2c0.2,0,0.3,0.1,0.3,0.4l0.1,9.5c0,0.2-0.1,0.3-0.4,0.3h-17.2v24.6
		C225.1,59.1,225,59.2,224.7,59.2z"/>
	<path d="M277.6,59.2h-27.1c-0.2,0-0.3-0.1-0.3-0.4l0.1-57.6c0-0.2,0.1-0.3,0.3-0.3h26.9c0.2,0,0.3,0.1,0.3,0.4v9.4
		c0,0.2-0.1,0.3-0.3,0.3h-17.2v13.1h17.2c0.2,0,0.3,0.1,0.3,0.3l0.1,9.5c0,0.2-0.1,0.3-0.3,0.3h-17.3v14.7h17.3
		c0.2,0,0.3,0.1,0.3,0.4v9.6C277.9,59.1,277.8,59.2,277.6,59.2z"/>
	<path d="M312.8,59.2h-27.1c-0.2,0-0.3-0.1-0.3-0.4l0.1-57.6c0-0.2,0.1-0.3,0.3-0.3h26.9c0.2,0,0.3,0.1,0.3,0.4v9.4
		c0,0.2-0.1,0.3-0.3,0.3h-17.2v13.1h17.2c0.2,0,0.3,0.1,0.3,0.3l0.1,9.5c0,0.2-0.1,0.3-0.3,0.3h-17.3v14.7h17.3
		c0.2,0,0.3,0.1,0.3,0.4v9.6C313.1,59.1,313,59.2,312.8,59.2z"/>
	<path d="M336,59.1l-15,0.1c-0.3,0-0.4-0.1-0.4-0.4l0.2-57.6c0-0.2,0.1-0.3,0.3-0.3l15.7-0.1c3.1-0.1,5.9,0.6,8.4,2.1
		c2.5,1.5,4.6,3.5,6.1,6.1s2.3,5.4,2.3,8.5v24.1c0,3.2-0.8,6.2-2.3,8.8c-1.6,2.6-3.7,4.8-6.3,6.3C342.3,58.2,339.3,59.1,336,59.1z
		 M336.7,10.8l-5.9,0.1l-0.1,38h5.2c2.1,0,3.8-0.7,5.2-2.2c1.4-1.4,2.1-3.2,2.1-5.2V17.4c0-1.8-0.7-3.3-2-4.6
		C340.1,11.4,338.5,10.8,336.7,10.8z"/>
	<path d="M378.1,10.5c0,4.9-3.9,8.8-8.9,8.8c-5,0-9-3.9-9-8.8c0-4.8,4-8.7,9-8.7C374.3,1.8,378.1,5.6,378.1,10.5z M362.5,10.5
		c0,3.9,2.9,7,6.8,7c3.8,0,6.6-3.1,6.6-6.9c0-3.9-2.8-7-6.7-7C365.3,3.5,362.5,6.7,362.5,10.5z M367.8,15h-2V6.3
		c0.8-0.2,1.9-0.3,3.3-0.3c1.6,0,2.4,0.3,3,0.6c0.5,0.4,0.8,1.1,0.8,1.9c0,1-0.7,1.7-1.8,2v0.1c0.8,0.3,1.3,1,1.6,2.1
		c0.3,1.3,0.4,1.9,0.6,2.2h-2.2c-0.3-0.3-0.4-1.1-0.7-2.1c-0.2-1-0.7-1.4-1.8-1.4h-1V15z M367.9,10.1h1c1.1,0,2-0.4,2-1.3
		c0-0.8-0.6-1.3-1.9-1.3c-0.5,0-0.9,0.1-1.1,0.1V10.1z"/>
</g>
</svg>
